HIERARCHY
ROOT Hips
{
	OFFSET 0.000000 0.000000 0.000000 
	CHANNELS 6 Xposition Yposition Zposition Yrotation Zrotation Xrotation 
	JOINT Lumbar
	{
		OFFSET 0.000000 0.000000 0.000000 
		CHANNELS 3 Zrotation Xrotation Yrotation
		JOINT Neck
		{
			OFFSET 0.000000 0.445665 0.000000 
			CHANNELS 3 Zrotation Xrotation Yrotation
			End Site
			{
				OFFSET 0.000000 0.227535 0.000000 
			}
		}
		JOINT RightShoulder
		{
			OFFSET 0.019635 0.377685 0.194865 
			CHANNELS 3 Zrotation Xrotation Yrotation
			JOINT RightElbow
			{
				OFFSET 0.000000 -0.243375 0.000000 
				CHANNELS 2 Zrotation Yrotation
				JOINT RightWrist
				{
					OFFSET 0.000000 -0.264825 0.000000 
					CHANNELS 2 Zrotation Xrotation
					End Site
					{
						OFFSET 0.006600 -0.176220 0.000990 
					}
				}
			}
		}
		JOINT LeftShoulder
		{
			OFFSET 0.019635 0.377685 -0.194865 
			CHANNELS 3 Zrotation Xrotation Yrotation
			JOINT LeftElbow
			{
				OFFSET 0.000000 -0.243375 0.000000 
				CHANNELS 2 Zrotation Yrotation
				JOINT LeftWrist
				{
					OFFSET 0.000000 -0.264825 0.000000 
					CHANNELS 2 Zrotation Xrotation
					End Site
					{
						OFFSET 0.006600 -0.176220 -0.000990 
					}
				}
			}
		}
	}
	JOINT RightHip
	{
		OFFSET 0.052140 -0.069960 0.075570 
		CHANNELS 3 Zrotation Xrotation Yrotation
		JOINT RightKnee
		{
			OFFSET 0.000000 -0.402270 0.000000 
			CHANNELS 1 Zrotation
			JOINT RightAnkle
			{
				OFFSET 0.000000 -0.404085 0.000000 
				CHANNELS 3 Zrotation Xrotation Yrotation
				End Site
				{
					OFFSET 0.204105 -0.089430 0.008415 
				}
			}
		}
	}
	JOINT LeftHip
	{
		OFFSET 0.052140 -0.069960 -0.075570 
		CHANNELS 3 Zrotation Xrotation Yrotation
		JOINT LeftKnee
		{
			OFFSET 0.000000 -0.402270 0.000000 
			CHANNELS 1 Zrotation
			JOINT LeftAnkle
			{
				OFFSET 0.000000 -0.404085 0.000000 
				CHANNELS 3 Zrotation Xrotation Yrotation
				End Site
				{
					OFFSET 0.204105 -0.089430 -0.008415 
				}
			}
		}
	}
}
MOTION
Frames: 19
Frame Time: 0.02
-0.44291 -1.10807 0.17191 51.18388 53.91458 -28.7335 27.9976 5.8562 -15.31979 -52.36705 9.42577 -0.83079 -64.40045 11.40171 -41.21932 137.62444 163.80857 -79.69657 -22.97555 -64.40043 -11.40157 69.10563 137.62442 -41.22889 78.85339 7.74945 79.29301 7.22712 -29.31149 -57.4756 -19.88703 -3.32262 -3.04246 47.11595 -7.08602 -15.12654 -0.45322 -50.69546 -14.36906 5.08603
-0.44328 -1.10794 0.17178 51.40755 54.11923 -29.08756 27.62468 5.55442 -15.3993 -52.2666 9.29484 -0.83079 -64.40045 11.4022 -40.8127 137.62445 163.80858 -79.70062 -22.97556 -64.40041 -11.4015 69.67103 137.62439 -42.97483 80.0675 9.11789 78.81347 7.34492 -29.38646 -57.14089 -19.94231 -3.32138 -3.04469 46.8353 -6.96246 -13.20366 -0.4427 -50.87575 -15.60154 5.23836
-0.4436 -1.10779 0.17174 51.68214 54.34773 -29.45807 27.22293 5.21083 -15.52221 -52.17984 9.11776 -0.83079 -64.40045 11.40142 -40.51318 137.62445 163.80858 -79.69855 -22.97556 -64.40039 -11.40143 70.13032 137.62439 -45.32546 81.33087 10.89931 78.29866 7.46027 -29.45314 -56.73081 -20.01792 -3.31376 -3.04427 46.51878 -6.83909 -10.04259 -0.42638 -51.18009 -17.49605 5.40519
-0.44395 -1.10766 0.17165 51.9241 54.56359 -29.81286 26.83798 4.88766 -15.62474 -52.08431 8.96204 -0.83079 -64.40045 11.40175 -40.15376 137.62445 163.80859 -79.68918 -22.97556 -64.40038 -11.40137 70.594 137.62436 -47.40273 82.53795 12.47954 77.80605 7.57677 -29.52487 -56.36125 -20.08182 -3.30907 -3.0449 46.22345 -6.71382 -7.54857 -0.41319 -51.41579 -19.01808 5.55997
-0.44428 -1.1075 0.17159 52.20641 54.78837 -30.20247 26.43506 4.55788 -15.7309 -52.00022 8.80354 -0.83079 -64.40045 11.40372 -39.83572 137.62445 163.80859 -79.72233 -22.97557 -64.40036 -11.40129 71.2526 137.62434 -49.48263 83.89055 14.11948 77.28411 7.69463 -29.59062 -55.96256 -20.15028 -3.30259 -3.04448 45.90623 -6.59548 -4.63545 -0.398 -51.69965 -20.82648 5.73773
-0.44463 -1.10738 0.1715 52.4164 54.99976 -30.52326 26.06397 4.2323 -15.8393 -51.89522 8.64048 -0.83079 -64.40045 11.39708 -39.45785 137.62445 163.80859 -79.66552 -22.97557 -64.40034 -11.40124 71.47865 137.62432 -51.69436 84.95133 15.72771 76.81607 7.8085 -29.66719 -55.60752 -20.22114 -3.30061 -3.04785 45.62661 -6.46305 -2.29041 -0.38555 -51.9145 -22.20454 5.87149
-0.44503 -1.10737 0.17131 52.41709 55.16782 -30.65207 25.78387 3.9272 -15.94541 -51.73004 8.474 -0.83079 -64.40045 11.40807 -38.90595 137.62445 163.80859 -79.36173 -22.97557 -64.40034 -11.40129 70.50599 137.62431 -54.15637 85.1878 17.20181 76.50645 7.9117 -29.77431 -55.39337 -20.23005 -3.2909 -3.04166 45.4592 -6.29123 -1.84935 -0.38218 -51.90265 -22.19735 5.87485
-0.44546 -1.10739 0.1711 52.34256 55.32142 -30.71047 25.53797 3.62814 -16.05173 -51.54304 8.30501 -0.83079 -64.40045 11.40226 -38.28822 137.62445 163.8086 -78.96804 -22.97557 -64.40035 -11.40137 69.10579 137.62431 -56.72127 85.12958 18.6201 76.25267 8.01075 -29.89293 -55.22577 -20.24971 -3.28902 -3.04232 45.33121 -6.10538 -2.01438 -0.38174 -51.81855 -21.74219 5.83413
-0.44587 -1.10737 0.17091 52.30083 55.48186 -30.80005 25.2791 3.32723 -16.15657 -51.36542 8.13877 -0.83079 -64.40045 11.37784 -37.68997 137.62445 163.80859 -78.61503 -22.97557 -64.40035 -11.40143 67.91902 137.62431 -59.21815 85.2102 20.0283 75.97308 8.11163 -30.00726 -55.03603 -20.30991 -3.29894 -3.05458 45.18545 -5.92631 -1.87764 -0.37986 -51.77178 -21.51737 5.81735
-0.4463 -1.10746 0.17067 52.26741 55.64228 -30.89458 25.0077 3.02091 -16.26907 -51.19077 7.96431 -0.83079 -64.40045 11.46622 -37.13829 137.62445 163.80861 -78.26084 -22.97558 -64.40036 -11.4015 66.64689 137.62431 -61.8333 85.27219 21.59973 75.69369 8.21276 -30.11732 -54.8479 -20.19096 -3.24764 -3.0084 45.03735 -5.74552 -1.80783 -0.37822 -51.71041 -21.20405 5.78558
-0.44668 -1.10734 0.17053 52.19727 55.79866 -30.96068 24.77166 2.72807 -16.36474 -51.00431 7.80673 -0.83079 -64.40045 11.31312 -36.47396 137.62445 163.80859 -77.88997 -22.97557 -64.40036 -11.40156 65.45377 137.62431 -64.20949 85.30189 22.81356 75.42806 8.31236 -30.23913 -54.66832 -20.43246 -3.32095 -3.08085 44.90455 -5.56501 -1.76031 -0.37686 -51.66057 -20.95808 5.77314
-0.44688 -1.10655 0.17069 52.05141 55.95016 -30.97537 24.61885 2.46934 -16.41635 -50.79276 7.69887 -0.83079 -64.40044 10.52041 -35.50284 137.62443 163.8085 -77.47676 -22.97548 -64.40036 -11.40159 64.57164 137.62431 -65.9758 85.31811 23.04245 75.18335 8.40885 -30.39087 -54.50286 -21.80232 -3.78165 -3.52287 44.7997 -5.38856 -1.61959 -0.37556 -51.66033 -21.0204 5.8351
-0.44703 -1.10556 0.17096 51.86956 56.09744 -30.96185 24.50171 2.22456 -16.4502 -50.56965 7.60791 -0.83079 -64.40042 9.4819 -34.42223 137.6244 163.80838 -77.05318 -22.97537 -64.40037 -11.4016 63.78684 137.62431 -67.4811 85.31106 22.91325 74.95137 8.50379 -30.55423 -54.34451 -23.51413 -4.36144 -4.07792 44.70999 -5.21296 -1.48956 -0.37447 -51.67329 -21.15894 5.91601
-0.44721 -1.10469 0.17117 51.69919 56.24475 -30.95485 24.37234 1.97458 -16.49049 -50.3503 7.50778 -0.83079 -64.4004 8.53964 -33.39909 137.62438 163.80828 -76.64654 -22.97527 -64.40037 -11.40162 62.96518 137.62431 -69.05339 85.31212 22.95337 74.71608 8.59957 -30.71185 -54.18201 -24.97391 -4.85414 -4.55002 44.61657 -5.03701 -1.36284 -0.3733 -51.67987 -21.25265 5.98154
-0.44734 -1.10369 0.17141 51.54693 56.39962 -30.97248 24.22735 1.71968 -16.53821 -50.13634 7.41365 -0.83079 -64.40039 7.65822 -32.3415 137.62435 163.80816 -76.18572 -22.97515 -64.40037 -11.40164 62.09584 137.62431 -70.84712 85.31346 22.96456 74.47245 8.69527 -30.87092 -54.02476 -26.82142 -5.47666 -5.14741 44.51101 -4.86018 -1.21471 -0.37213 -51.68673 -21.3797 6.07431
-0.44756 -1.10293 0.17162 51.34924 56.53783 -30.93243 24.12294 1.47866 -16.56561 -49.90887 7.31129 -0.83079 -64.40037 6.5967 -31.33009 137.62433 163.80808 -75.83575 -22.97508 -64.40037 -11.40166 61.3565 137.62431 -72.11685 85.31237 22.95094 74.24827 8.79003 -31.03068 -53.85793 -27.96824 -5.86905 -5.521 44.43397 -4.68584 -1.11511 -0.37103 -51.69566 -21.45423 6.11518
-0.44802 -1.10286 0.17173 51.03628 56.63176 -30.74509 24.12151 1.26926 -16.54652 -49.6455 7.18037 -0.83079 -64.40039 5.0575 -30.47732 137.62435 163.80816 -75.8011 -22.97515 -64.40037 -11.40166 60.93762 137.62431 -71.99673 85.31296 22.962 74.07663 8.88948 -31.17933 -53.66076 -26.86626 -5.48852 -5.15554 44.43062 -4.51598 -1.0617 -0.36947 -51.72031 -21.43 6.01049
-0.44856 -1.10305 0.17182 50.67898 56.70898 -30.50004 24.1596 1.07398 -16.50663 -49.36934 7.04097 -0.83079 -64.4004 3.35347 -29.67474 137.62438 163.80828 -75.87759 -22.97527 -64.40037 -11.40166 60.65105 137.62432 -71.35947 85.31289 22.95961 73.92378 8.98694 -31.3296 -53.45407 -25.08429 -4.8891 -4.57557 44.45551 -4.34911 -1.06561 -0.36804 -51.74505 -21.34337 5.85289
-0.44906 -1.10311 0.17193 50.34144 56.79352 -30.27848 24.17958 0.87433 -16.47271 -49.09999 6.90651 -0.83079 -64.40042 1.75118 -28.84615 137.6244 163.80839 -75.8993 -22.97537 -64.40038 -11.40167 60.31582 137.62432 -70.96209 85.31284 22.96001 73.76036 9.08059 -31.48639 -53.25266 -23.77215 -4.46519 -4.15857 44.46818 -4.18232 -1.10148 -0.36695 -51.76074 -21.24111 5.71787
